<?xml version="1.0" encoding="UTF-8"?>
<svg width="93px" height="106px" viewBox="0 0 93 106" version="1.1" xmlns="http://www.w3.org/2000/svg" xmlns:xlink="http://www.w3.org/1999/xlink" xmlns:sketch="http://www.bohemiancoding.com/sketch/ns">
    <!-- Generator: Sketch 3.3.3 (12072) - http://www.bohemiancoding.com/sketch -->
    <title>spiral-ar</title>
    <desc>Created with Sketch.</desc>
    <defs></defs>
    <g id="Page-1" stroke="none" stroke-width="1" fill="none" fill-rule="evenodd" sketch:type="MSPage">
        <g id="spiral-ar" sketch:type="MSArtboardGroup">
            <g sketch:type="MSLayerGroup" transform="translate(20.000000, 17.000000)" id="layer1">
                <g transform="translate(0.864266, 0.080662)" sketch:type="MSShapeGroup">
                    <g id="g4220" transform="translate(1.000000, 0.000000)">
                        <path d="M25.048453,71.48843 C24.752947,71.31647 21.568615,66.76433 17.972161,61.37256 C2.450102,38.102035 0.478256,34.12819 0.499959,26.161003 C0.526499,16.41853 6.009303,7.432728 14.635735,2.993802 C18.753259,0.875036 21.233851,0.292393 26.185735,0.28093 C29.67208,0.27283 30.782602,0.386083 32.721373,0.947273 C41.803943,3.576281 48.909557,10.844282 51.269552,19.919338 C52.219082,23.570626 52.201685,28.972798 51.228972,32.519338 C50.406783,35.517088 47.812851,40.717516 44.42046,46.169338 C39.811653,53.576038 28.207394,70.83512 27.505901,71.32646 C26.705663,71.88697 25.832237,71.94454 25.048448,71.48843 L25.048453,71.48843 Z M30.880924,47.831512 C36.166561,46.918972 37.308844,46.498219 38.214017,45.130411 C39.293786,43.498768 39.111752,42.596443 37.678778,42.477304 C37.069951,42.426684 36.184426,42.585598 35.710945,42.830446 C34.521784,43.445383 28.771333,44.520166 26.695507,44.515468 C24.721852,44.510968 21.600841,43.614172 20.230525,42.657745 C16.66804,40.17127 15.44809,38.660572 12.783658,33.436099 L11.185735,30.302863 L11.188135,27.286099 C11.191435,23.078779 11.94892,21.05626 14.879971,17.428552 C16.375537,15.577522 16.827532,15.239977 19.560577,13.933153 C25.673677,11.010131 29.385049,10.42807 32.300596,11.935112 C36.742738,14.23126 38.935736,18.335359 38.935736,24.352525 C38.935736,27.058192 38.883016,27.298972 37.983683,28.700455 C36.176497,31.516708 31.502335,34.716091 28.617394,35.111515 C26.944663,35.340787 24.923593,34.673722 22.735735,33.170236 C20.901292,31.909615 20.08201,30.559324 19.31353,27.529951 C18.896164,25.884682 18.894484,25.530409 19.2976,24.172957 C19.844677,22.330753 21.471466,20.81098 23.848183,19.921738 C25.965928,19.129387 26.319958,19.155805 27.782572,20.215318 C29.195716,21.238993 30.166435,22.930024 30.425374,24.819178 C30.584959,25.983478 30.501894,26.237005 29.638687,27.220138 C28.503928,28.512556 27.623197,28.620445 26.651455,27.586072 C26.065315,26.962156 25.992118,26.655886 26.160607,25.532308 C26.313373,24.513598 26.249067,24.120883 25.879258,23.813965 C25.147288,23.206483 23.881177,23.788795 23.251405,25.022554 C22.653598,26.193703 22.775665,28.568401 23.491816,29.699494 C24.649156,31.527403 28.771234,31.869697 31.096402,30.330976 C32.931364,29.116654 33.835732,27.127399 33.835732,24.305524 C33.835732,22.369972 33.705067,21.819349 32.856979,20.181064 C31.690255,17.927254 30.107581,16.796584 27.426082,16.3012 C24.569842,15.773533 22.369675,16.453123 18.49099,19.061083 C16.474183,20.417149 15.705145,21.563278 15.115198,24.092155 C14.741062,25.695928 14.735242,26.269297 15.075808,27.971698 C16.135411,33.268357 17.800897,36.080137 21.001387,37.975648 L23.185735,39.269338 L26.785735,39.269338 C30.020602,39.269338 30.604117,39.183848 32.538853,38.426473 C33.723067,37.962895 35.796712,36.815395 37.146952,35.876473 C41.42378,32.902474 42.917663,29.911747 42.869849,24.419338 C42.842519,21.278917 42.358889,18.608788 41.322941,15.878635 C40.420037,13.499119 38.3135,11.425785 35.212333,9.864347 C32.848432,8.67412 32.82502,8.669368 29.362333,8.676853 C25.118206,8.686053 23.720398,9.065379 18.37135,11.6597 C15.038467,13.276168 14.212525,13.822227 12.811507,15.335491 C11.198452,17.077783 9.330024,20.237293 8.681495,22.319338 C8.501611,22.896838 8.23075,24.634555 8.079581,26.180932 C7.84669,28.563274 7.896241,29.433478 8.404141,31.880755 C9.736873,38.302438 14.504341,44.769019 19.649794,47.134324 C22.492177,48.440935 26.066005,48.662785 30.880924,47.831512 L30.880924,47.831512 Z" id="path4234" fill="#DEA6A2"></path>
                        <path d="M25.076005,71.14434 C24.519949,70.7048 12.507949,52.705672 8.408547,46.169338 C4.876998,40.538425 2.226896,35.186233 1.427022,32.069338 C0.140959,27.057889 0.787266,20.482159 3.04649,15.592366 C6.259995,8.637154 11.631157,3.916526 19.135735,1.451786 C21.436891,0.696015 22.110235,0.612603 26.035735,0.597044 C29.680114,0.582604 30.764602,0.688774 32.721373,1.25157 C40.088399,3.370448 46.357241,8.731778 49.454261,15.562114 C51.01058,18.994501 51.632834,22.040476 51.631403,26.219338 C51.628703,34.044553 49.910534,37.55818 35.407753,59.396095 C31.124431,65.84581 27.387418,71.21206 27.103279,71.3211 C26.318407,71.62228 25.601572,71.55978 25.076005,71.14434 L25.076005,71.14434 Z M32.846062,47.791132 C34.462882,47.440876 36.258235,46.959193 36.835735,46.720729 C38.591297,45.995812 39.825716,43.429318 38.875736,42.479338 C38.385803,41.989405 36.687208,42.0256 35.678005,42.547478 C34.515958,43.148396 28.744561,44.220104 26.695507,44.215466 C24.669625,44.210866 21.76342,43.35935 20.235976,42.322799 C18.452887,41.112761 16.135735,39.088043 16.135735,38.740022 C16.135735,38.562128 15.937846,38.197916 15.695983,37.930661 C15.193027,37.374899 13.490152,34.348961 12.313057,31.919336 C11.611381,30.471014 11.513335,29.902652 11.510908,27.269336 C11.507108,23.164208 12.210217,21.190883 14.833597,17.943743 C16.717525,15.611879 16.740232,15.594662 19.946383,14.067377 C23.589292,12.332035 26.350903,11.505062 28.735735,11.435377 C30.483868,11.384297 30.891667,11.493847 32.675005,12.493568 C33.769102,13.106911 35.094391,14.098613 35.620087,14.69735 C37.555994,16.902224 38.635736,20.353622 38.635736,24.336878 C38.635736,27.03125 38.583896,27.265523 37.678475,28.662824 C36.521146,30.448883 34.024843,32.558051 31.585735,33.810683 C29.073913,35.100656 26.866771,35.118749 24.43156,33.869333 C21.820165,32.529527 20.844184,31.433609 20.042776,28.941233 C18.789742,25.04429 19.277713,23.023739 21.887779,21.301607 C22.766653,20.721719 24.116158,20.080877 24.886678,19.877513 C26.212675,19.527539 26.352784,19.550882 27.50575,20.313881 C28.88395,21.225932 29.863231,22.906613 30.123694,24.806906 C30.275344,25.913303 30.185564,26.232923 29.49142,27.057866 C27.95467,28.884188 26.099623,27.939533 26.463094,25.515737 C26.810617,23.198288 25.114426,22.419092 23.466862,24.139325 C22.648522,24.993758 22.589449,25.209761 22.637839,27.170615 C22.681009,28.920125 22.809532,29.411699 23.387839,30.039287 C25.407172,32.230709 29.757706,32.15111 32.129461,29.879351 C34.257163,27.841355 34.811407,23.635616 33.36295,20.519333 C32.441248,18.536342 31.662436,17.654105 30.148168,16.87763 C27.475798,15.507311 23.784277,15.561089 21.235735,17.007467 C16.535878,19.674785 15.473566,20.863118 14.76136,24.249884 C14.340364,26.251844 14.65465,28.50476 15.806986,31.74536 C17.12449,35.450444 18.372301,36.920564 21.685735,38.671463 L23.785735,39.781154 L27.235735,39.641474 C30.203596,39.521315 30.987745,39.375626 32.846803,38.598983 C36.646384,37.011662 39.75674,34.679984 41.316047,32.250014 C42.617177,30.22238 43.202465,27.793631 43.187255,24.485138 C43.172405,21.254399 42.789029,19.057994 41.757086,16.291493 C40.510499,12.949568 39.039809,11.444884 35.132491,9.513783 C30.28882,7.119912 24.957619,7.886277 16.573183,12.181701 C12.966598,14.029385 9.779296,17.978114 8.39037,22.319333 C8.205605,22.896833 7.93075,24.63455 7.779581,26.180927 C7.54669,28.563269 7.596241,29.433473 8.104141,31.88075 C9.359592,37.930061 13.434151,43.8224 18.535735,46.966181 C21.458587,48.767348 26.893489,49.080653 32.846062,47.791127 L32.846062,47.791132 Z" id="path4232" fill="#D0827B"></path>
                        <path d="M25.522282,71.19386 C24.859996,70.94765 14.586889,55.841443 8.708156,46.469338 C5.160645,40.813756 2.220725,34.876222 1.438737,31.787836 C-0.82325,22.85434 2.872394,12.416323 10.517995,6.144287 C12.924217,4.170351 16.221655,2.461758 19.600537,1.438094 C21.931807,0.731815 22.799782,0.624953 26.185735,0.627352 C30.816637,0.630652 33.326062,1.204079 37.174606,3.138494 C44.093396,6.616125 49.034447,12.736591 50.963969,20.219338 C51.876218,23.757073 51.87923,28.423018 50.971569,31.919338 C50.191404,34.924384 48.225102,39.079846 45.222372,44.069338 C42.435684,48.699847 28.083497,70.36608 27.516875,70.79777 C26.807186,71.33845 26.223233,71.45442 25.522334,71.19386 L25.522282,71.19386 Z M33.235735,47.81467 C36.985933,47.028589 37.775435,46.661332 38.606774,45.316201 C39.483098,43.898278 39.442841,42.500839 38.513474,42.077389 C37.933829,41.813284 37.297015,41.901223 35.288473,42.522742 C31.683214,43.638343 27.662038,44.30629 25.885738,44.084608 C23.914411,43.838584 21.605776,43.084855 20.485738,42.321601 C17.036932,39.971395 15.763681,38.391325 13.083661,33.135826 C11.494849,30.020179 11.485819,29.986828 11.499937,27.285826 C11.520397,23.3707 12.337498,21.246601 15.173197,17.736913 C16.672078,15.881776 17.105836,15.56077 19.947319,14.20378 C25.725799,11.444191 29.298457,10.882253 32.085547,12.294578 C36.318463,14.439559 38.635739,18.728998 38.635739,24.41944 C38.635739,26.712964 38.558029,27.037909 37.683686,28.400455 C35.688118,31.510276 30.665098,34.734724 27.816211,34.734724 C26.87536,34.734724 25.866805,34.453615 24.712756,33.869719 C21.993271,32.493787 21.014086,31.456525 20.181136,29.069338 C19.375234,26.759662 19.284883,25.724518 19.744699,24.069019 C20.261734,22.207498 23.518507,19.916659 25.737598,19.853566 C27.517141,19.802966 29.56375,22.184404 30.116683,24.949069 C30.258658,25.658935 30.104593,26.047816 29.333503,26.926051 C28.191598,28.226608 27.783679,28.279183 26.959942,27.23197 C26.475169,26.615683 26.380936,26.192338 26.52625,25.283596 C26.744446,23.919085 26.304796,23.219338 25.229281,23.219338 C23.282371,23.219338 22.269703,24.848581 22.549966,27.529993 C22.653325,28.518862 22.929796,29.620825 23.164348,29.978794 C23.862811,31.044784 25.467874,31.619338 27.747343,31.619338 C29.525491,31.619338 30.015679,31.494145 31.214623,30.733798 C33.256459,29.438902 34.21105,27.420316 34.230781,24.355792 C34.244131,22.282831 34.133911,21.811084 33.215746,20.011429 C31.982302,17.593801 30.446635,16.489519 27.575485,15.95557 C24.401158,15.365245 21.993646,16.124221 17.725414,19.06084 C15.277036,20.74537 13.952245,24.527461 14.630158,27.897355 C15.173011,30.595888 16.35136,33.696529 17.491159,35.425648 C18.258997,36.590485 19.066489,37.307365 20.701393,38.275648 L22.885738,39.569338 L26.935738,39.569338 C30.8548,39.569338 31.058482,39.537538 33.235738,38.585686 C38.307329,36.368491 41.740934,33.026584 42.762677,29.313172 C43.330997,27.247672 43.375739,22.407907 42.850957,19.763653 C41.797483,14.455465 39.851977,11.750534 35.515164,9.564347 C33.290613,8.44295 32.957976,8.363335 30.115164,8.271885 C25.773927,8.132232 23.560965,8.683265 18.459183,11.174251 C13.734864,13.480938 12.2361,14.726407 10.303905,17.951266 C8.70769,20.615365 8.094692,22.540519 7.743605,25.992016 C7.464613,28.734754 7.498097,29.456353 8.022657,32.005756 C8.3547,33.61951 9.039169,35.735638 9.567873,36.782992 C10.640859,38.908567 13.937514,43.91683 14.268477,43.924129 C14.387973,43.926829 14.95824,44.347024 15.53574,44.858041 C17.984784,47.025139 20.350713,48.182737 23.03574,48.527632 C25.184784,48.803677 30.18477,48.454192 33.23574,47.81467 L33.235735,47.81467 Z" id="path4230" fill="#C86B63"></path>
                        <path d="M25.256272,70.98975 C24.834262,70.70743 12.418063,52.084015 8.708547,46.169338 C5.138488,40.477021 2.497305,35.150515 1.716968,32.069338 C0.884463,28.782169 0.885115,23.879851 1.718568,20.370751 C3.88572,11.245879 10.572114,4.217705 19.585779,1.590246 C23.025675,0.587525 29.334426,0.566886 32.721417,1.547276 C41.734858,4.156274 48.286576,10.878422 50.675458,19.968352 C51.184303,21.904558 51.332245,23.316181 51.330571,26.219341 C51.326071,34.056688 49.732168,37.330285 35.336211,59.069341 C31.184115,65.339343 27.569631,70.638093 27.304023,70.844343 C26.769759,71.259213 25.765686,71.330513 25.256316,70.989753 L25.256272,70.98975 Z M32.681446,48.110872 C36.921223,47.248024 38.079242,46.695205 38.884943,45.149437 C39.657188,43.667851 39.703487,42.929947 39.064307,42.290767 C38.476475,41.702932 36.773146,41.681161 35.678005,42.247477 C34.515958,42.848395 28.744561,43.920103 26.695507,43.915465 C24.700306,43.910965 21.766132,43.062325 20.30557,42.06736 C16.964542,39.791392 16.061914,38.649061 13.23928,33.124552 C11.802394,30.312256 11.785795,30.247162 11.785765,27.424552 C11.78572,23.069335 12.773878,20.565076 15.861745,17.09491 C18.03181,14.656177 24.769396,11.851273 28.735735,11.735376 C30.485266,11.684256 30.891136,11.793536 32.683699,12.798429 C34.868125,14.022988 36.017659,15.199996 36.845575,17.059765 C37.938035,19.513786 38.33576,21.473275 38.331149,24.378784 C38.326749,27.140374 38.283269,27.332815 37.356149,28.692217 C36.150982,30.45931 33.953233,32.295085 31.59022,33.508489 C29.10562,34.784329 26.856529,34.817569 24.535735,33.612757 C21.610711,32.094262 20.826421,31.049557 19.885513,27.41848 C19.491331,25.897282 19.493188,25.534765 19.902223,24.157387 C20.29816,22.824127 20.580478,22.46389 21.924076,21.577507 C22.782985,21.010876 24.107797,20.383117 24.868096,20.182483 C26.1349,19.848193 26.342581,19.874632 27.352423,20.498749 C28.613038,21.277852 29.568418,22.940245 29.820553,24.793375 C29.960098,25.819021 29.866443,26.231182 29.343169,26.894335 C28.012948,28.580137 26.432911,27.717538 26.767246,25.488046 C26.93425,24.374386 26.864906,24.048508 26.351716,23.535319 C25.562194,22.745797 24.82468,22.755697 23.789836,23.569709 C21.235621,25.578854 21.965707,30.226826 25.037089,31.51013 C26.342965,32.055761 28.793218,32.028692 30.170368,31.45342 C33.9739,29.864593 35.616145,24.724651 33.66388,20.519335 C32.331724,17.649781 30.539548,16.27696 27.357721,15.688768 C24.662653,15.190558 22.554472,15.790174 18.985732,18.069964 C16.13497,19.891096 15.20014,21.156067 14.505943,24.131821 C14.023069,26.201719 14.308996,28.376389 15.506983,31.745362 C16.828789,35.462545 18.301348,37.184878 21.685732,38.972155 L23.785732,40.081156 L27.235732,39.941476 C30.203593,39.821317 30.987742,39.675628 32.8468,38.898985 C38.340884,36.603766 41.922167,33.131236 43.02146,29.033305 C43.604006,26.861707 43.605098,22.310185 43.02386,19.619335 C41.802134,13.964674 40.022327,11.629796 35.068099,9.182408 C32.857726,8.090482 32.749096,8.069478 29.350393,8.07685 C25.13755,8.08595 23.753263,8.461193 18.385867,11.048724 C14.945857,12.707094 14.251576,13.173716 12.499459,15.004948 C10.592194,16.998331 8.86309,19.864384 8.086653,22.319335 C7.904005,22.896835 7.630882,24.634552 7.479713,26.180929 C7.246822,28.563271 7.296373,29.433475 7.804273,31.880752 C9.044172,37.855126 12.816838,43.424362 17.938156,46.840462 C21.27598,49.066909 25.988578,49.472983 32.681578,48.110869 L32.681446,48.110872 Z" id="path4228" fill="#BD4D43"></path>
                        <path d="M25.479478,71.01023 C25.256035,70.92128 21.609529,65.63319 17.37613,59.25892 C3.275267,38.027116 1.519337,34.533328 1.223208,27.119338 C1.034266,22.388893 1.688766,19.325566 3.81914,14.969338 C6.970003,8.526395 12.182557,4.113888 19.435735,1.74965 C21.692164,1.014147 22.451992,0.916448 26.035735,0.90102 C30.827971,0.88039 33.208036,1.43699 37.369919,3.551628 C42.330131,6.071897 46.353824,10.127123 48.698843,14.969338 C50.600795,18.896662 51.325856,22.003579 51.324263,26.219338 C51.321563,33.728899 49.251764,37.942909 35.092114,59.269402 C30.965665,65.48444 27.316261,70.71569 26.982328,70.8944 C26.328943,71.24408 26.109382,71.261 25.479478,71.01023 L25.479478,71.01023 Z M32.335735,48.277588 C36.884326,47.326168 37.674488,46.998694 38.641043,45.664402 C39.581201,44.366551 39.818204,42.821806 39.175736,42.179338 C38.681708,41.68531 36.386038,41.726206 35.37898,42.246968 C34.087771,42.914681 27.872671,43.992635 26.185735,43.841459 C23.533762,43.603796 21.481447,42.796502 19.299502,41.132708 C16.858831,39.271625 15.809494,37.863905 13.493947,33.344363 L11.785735,30.010232 L11.799925,27.289781 C11.820085,23.425805 12.628834,21.281504 15.348457,17.881157 C16.715929,16.1714 17.217085,15.800468 19.885726,14.52287 C25.878265,11.653973 29.185918,11.112102 31.987789,12.540268 C36.175573,14.674853 38.335736,18.694487 38.335736,24.35252 C38.335736,26.716247 38.261956,27.031784 37.392371,28.386911 C35.721283,30.991076 31.259014,34.061321 28.533535,34.482197 C27.128143,34.699223 25.462744,34.138862 23.187502,32.683406 C21.368914,31.520072 20.588683,30.20966 19.962025,27.266165 C19.491232,25.05479 19.869545,23.58452 21.246361,22.274789 C22.50025,21.081995 25.476853,19.796735 26.346319,20.072693 C27.893803,20.563844 29.376889,22.584491 29.784457,24.757022 C29.949406,25.636262 29.846917,25.978853 29.182837,26.768066 C28.262176,27.862211 27.832012,27.943958 27.122236,27.159668 C26.734906,26.731673 26.662696,26.306387 26.815306,25.352009 C27.054451,23.856482 26.405098,22.919333 25.129696,22.919333 C23.150959,22.919333 21.925624,25.090982 22.284346,27.962114 C22.458907,29.359244 22.675696,29.824799 23.524483,30.625307 C24.706279,31.739885 25.91641,32.043479 28.447561,31.860392 C30.725017,31.695656 32.450437,30.557141 33.603727,28.45811 C34.31293,27.167333 34.422652,26.626592 34.428727,24.392249 C34.434927,22.105508 34.331467,21.606503 33.510226,19.963061 C31.743172,16.426871 28.105936,14.837135 23.841601,15.737168 C21.078613,16.320326 16.935154,18.875468 15.687715,20.765417 C14.513215,22.544858 13.942093,25.578281 14.360581,27.814265 C15.384283,33.283907 17.260543,36.479849 20.645275,38.519333 L22.885735,39.869333 L26.785735,39.869333 C30.349417,39.869333 30.871411,39.796653 32.838853,39.026468 C36.072175,37.760741 39.722126,35.103872 41.273675,32.886593 C42.94913,30.492248 43.515389,28.365881 43.501142,24.522203 C43.488092,21.004667 43.11212,18.820226 42.011822,15.869333 C40.993442,13.138137 38.828363,10.929981 35.554489,9.283522 C33.521122,8.260925 32.89609,8.093947 30.662935,7.976736 C25.955563,7.729662 22.552669,8.655197 16.400533,11.85589 C13.535032,13.346688 11.058022,15.865331 9.493776,18.878735 C8.079293,21.603635 7.826054,22.485032 7.447316,26.001452 C7.167153,28.602641 7.203256,29.279819 7.767204,32.001452 C8.467015,35.378765 9.345894,37.338359 11.845201,41.093969 C14.550253,45.158738 18.875551,48.204527 22.710727,48.745253 C25.007851,49.069127 29.623744,48.844843 32.335735,48.277583 L32.335735,48.277588 Z" id="path4226" fill="#B94339"></path>
                        <path d="M17.111623,58.694338 C5.907432,41.78815 3.811058,38.195029 2.190132,33.119338 C-0.469066,24.792454 2.067479,14.926393 8.564923,8.324165 C11.55043,5.290511 14.598241,3.419282 18.704233,2.099053 C29.881996,-1.495016 41.632958,3.128842 47.980523,13.618909 C48.582656,14.614 49.526147,16.809931 50.077172,18.498754 C51.032654,21.427192 51.078932,21.777658 51.076844,26.069338 C51.074744,30.160039 50.998314,30.811132 50.235374,33.227704 C48.694652,38.107843 46.036235,42.630718 34.473316,60.04434 C27.335521,70.79377 27.240376,70.91934 26.232805,70.91934 C25.222906,70.91934 25.13842,70.8061 17.111623,58.694338 L17.111623,58.694338 Z M33.535735,48.119497 C37.372982,47.209528 38.352098,46.674316 39.167924,45.04078 C39.730688,43.913959 39.783284,43.558411 39.50522,42.76075 C39.048965,41.45194 38.055305,41.263456 35.795458,42.057049 C29.999434,44.092453 23.448745,44.0695 20.493928,42.003439 C17.178487,39.685219 15.793954,37.891867 12.940258,32.219341 C10.488124,27.345034 11.752714,21.712186 16.396795,16.822906 C18.253063,14.868631 24.601138,12.226006 28.196242,11.910943 C29.986024,11.754092 30.393127,11.825933 31.904422,12.565343 C35.15617,14.156275 36.433993,15.733525 37.536548,19.517221 C38.05304,21.289702 38.210186,22.534711 38.174234,24.569341 C38.130354,27.052711 38.052143,27.378967 37.199464,28.635682 C36.083356,30.280651 33.263947,32.55457 31.079671,33.571438 C28.872313,34.599052 26.991349,34.563124 24.685735,33.449308 C22.333273,32.312863 21.419494,31.395265 20.684815,29.431654 C19.26184,25.628413 19.572214,23.447323 21.75625,21.902401 C25.489909,19.261318 28.103782,19.859458 29.351107,23.640355 C29.835496,25.108633 29.869585,25.522015 29.558308,26.152936 C28.977592,27.329983 28.077001,27.811906 27.392908,27.311683 C26.966995,27.00025 26.849743,26.560264 26.889949,25.424338 C26.955239,23.579632 26.450038,22.819342 25.158967,22.819342 C24.481111,22.819342 23.91955,23.097064 23.256298,23.760319 C22.438207,24.57841 22.299352,24.952066 22.193047,26.621533 C22.035397,29.097403 22.609297,30.369184 24.317413,31.329199 C26.874337,32.766271 30.623512,32.135038 32.676487,29.921815 C34.141333,28.342627 34.544329,27.168946 34.565812,24.419341 C34.583332,22.176946 34.482302,21.670303 33.72829,20.219341 C32.617123,18.081097 31.900729,17.320291 30.167863,16.438204 C27.028024,14.839915 23.643409,15.112345 19.96741,17.259244 C17.454496,18.726865 15.961258,20.006554 15.323677,21.238873 C14.697481,22.449193 14.043808,24.921349 14.039296,26.096353 C14.033896,27.504844 15.145702,31.547587 16.098394,33.583552 C17.28169,36.112336 18.51736,37.399966 21.185239,38.884291 L23.485735,40.164214 L26.635735,40.148584 C30.146251,40.131154 31.79617,39.714088 35.070496,38.016385 C39.234842,35.857219 42.041186,32.884339 43.054376,29.558716 C43.802531,27.103024 43.722173,21.428083 42.895988,18.373108 C41.653889,13.780209 40.049285,11.67113 36.225952,9.606061 C30.447487,6.48498 25.650526,7.005137 16.553962,11.739189 C10.796593,14.735449 7.138017,21.13807 7.136145,28.220653 C7.134645,33.866062 11.008966,41.616046 15.736063,45.423493 C19.582087,48.521281 21.295876,49.044874 27.085735,48.891019 C29.479036,48.827419 31.641037,48.568813 33.535735,48.1195 L33.535735,48.119497 Z" id="path4224" fill="#B33429"></path>
                        <path d="M25.553659,70.68974 C25.07719,70.3735 10.497049,48.412219 7.87549,44.062069 C2.852092,35.726362 1.435734,31.821769 1.435734,26.309044 C1.435734,16.431247 6.702438,8.023244 15.745981,3.463526 C19.065871,1.78965 21.794545,1.193725 26.185735,1.18355 C30.835732,1.17277 33.361054,1.781096 37.46462,3.900504 C46.652702,8.645962 52.098032,18.728452 50.942885,28.856653 C50.437736,33.285742 49.205927,36.285091 44.98946,43.352716 C42.027596,48.317377 27.665881,70.03036 27.003979,70.54434 C26.45764,70.96858 26.037271,71.01073 25.553659,70.68974 L25.553659,70.68974 Z M32.935735,48.41425 C36.826192,47.613121 38.545907,46.894663 38.918447,45.914812 C39.072602,45.509356 39.342053,45.089041 39.517232,44.980774 C39.925082,44.728708 39.930248,42.856489 39.525132,42.099616 C39.281478,41.644348 38.890497,41.519338 37.710234,41.519338 C36.882842,41.519338 35.833319,41.712001 35.377955,41.94748 C34.29605,42.506953 28.500035,43.620421 26.695457,43.615468 C24.962288,43.610668 21.984638,42.705922 20.592059,41.760895 C18.808856,40.550779 16.735685,38.761084 16.735685,38.431822 C16.735685,38.25844 16.537796,37.897918 16.295933,37.630663 C15.801542,37.084366 14.123024,34.108639 12.905126,31.619338 C12.201461,30.181093 12.097079,29.599762 12.091772,27.089575 C12.088372,25.505704 12.23468,23.885704 12.416786,23.489575 C12.598895,23.093446 13.022213,22.161838 13.357496,21.419338 C13.692779,20.676838 14.623781,19.224679 15.426392,18.192322 C16.717628,16.531468 17.231177,16.145725 19.885685,14.842789 C21.535685,14.032903 23.544116,13.15208 24.348869,12.885401 C26.306246,12.236763 29.291543,11.848561 30.237011,12.119718 C35.166554,13.533493 38.040519,18.047797 38.037171,24.37189 C38.035971,26.806069 37.946961,27.294571 37.360686,28.088383 C34.972463,31.322005 30.641633,34.123489 27.985685,34.15279 C26.295746,34.17142 23.618069,32.977363 22.165799,31.557502 C21.226973,30.639625 20.035685,27.393625 20.035685,25.753402 C20.035685,23.353726 21.553769,21.690079 24.731513,20.607313 C25.95482,20.19049 26.087831,20.202631 27.091118,20.822695 C28.237334,21.531097 29.165861,23.059021 29.485472,24.762694 C29.65031,25.641361 29.552702,25.980763 28.928696,26.698738 C28.298741,27.423559 28.081088,27.512278 27.628862,27.228577 C27.204494,26.962354 27.105965,26.579437 27.178403,25.47796 C27.307382,23.516716 26.682434,22.619338 25.187618,22.619338 C24.281495,22.619338 23.845466,22.834033 23.019536,23.68687 C22.005377,24.734065 21.986501,24.80026 22.028552,27.161914 C22.067832,29.368378 22.142996,29.645578 22.928552,30.48133 C24.105854,31.733863 25.392758,32.219338 27.535685,32.219338 C32.080109,32.219338 34.735934,29.300368 34.735448,24.306202 C34.734848,19.169944 31.876049,15.859732 26.935685,15.275158 C25.072103,15.054646 22.149605,15.624514 20.75735,16.479889 C17.172215,18.682537 15.759677,19.844278 15.072545,21.155353 C14.845973,21.587662 14.451092,22.870162 14.195036,24.005353 C13.78247,25.83439 13.779017,26.308387 14.164686,28.169338 C15.050397,32.443039 16.420734,35.451757 18.285147,37.216249 C18.83544,37.737049 20.208141,38.648299 21.335595,39.241249 C23.304,40.276468 23.508519,40.319338 26.478996,40.319338 C30.816333,40.319338 33.871062,39.349789 37.553539,36.804355 C42.184258,33.603466 43.83631,30.347401 43.792234,24.50836 C43.772044,21.835195 43.341778,18.601312 42.842371,17.369338 C42.708598,17.039338 42.379984,16.151086 42.11212,15.395446 C41.163694,12.719957 39.120313,10.736435 35.437365,8.916224 C33.473955,7.945854 32.841672,7.785286 30.553134,7.67587 C26.013039,7.458805 22.261083,8.482658 16.276926,11.571636 C12.577932,13.48103 9.180474,17.664082 7.79135,22.019338 C7.607154,22.596838 7.322039,24.41878 7.157761,26.068099 C6.896327,28.69285 6.936608,29.441017 7.480725,32.066809 C8.965853,39.23371 14.622747,46.508026 20.18568,48.404371 C23.265696,49.454314 27.867597,49.457881 32.93568,48.414271 L32.935735,48.41425 Z" id="path4222" fill="#AE2519"></path>
                    </g>
                </g>
            </g>
        </g>
    </g>
</svg>